<svg width="272" height="92" viewBox="0 0 272 92" fill="none" xmlns="http://www.w3.org/2000/svg">
<g clip-path="url(#clip0_12_55)">
<path d="M33.498 0.00811768H35.9168C44.3141 0.197287 52.5745 3.69693 58.5074 9.89223C56.3168 12.2096 54.0805 14.4323 51.9356 16.7496C48.604 13.6283 44.5879 11.2164 40.2067 10.3652C33.7262 8.94638 26.7436 10.2233 21.3127 14.054C15.3799 18.0738 11.3637 24.8839 10.4966 32.167C9.53824 39.3554 11.5007 46.9222 16.0188 52.5027C20.3543 57.9413 26.9718 61.3464 33.8174 61.5828C40.2067 61.9612 46.8698 59.9276 51.5248 55.2929C55.1758 52.0298 56.8644 47.0641 57.4121 42.2402C49.8362 42.2402 42.2604 42.2875 34.6845 42.2402V32.498H66.5852C68.2282 42.9496 65.855 54.7254 58.1879 62.1976C53.0765 67.4944 46.0027 70.6157 38.7919 71.2305C31.8094 71.9399 24.5986 70.5684 18.3919 67.0688C10.953 62.9543 5.02012 56.0023 2.09931 47.8207C-0.638941 40.3013 -0.684578 31.7886 1.87113 24.2218C4.19864 17.3171 8.67113 11.2164 14.4215 6.9601C19.9436 2.75108 26.6523 0.433749 33.498 0.00811768Z" fill="#3780FF"/>
<path d="M216.505 2.46735H226.271V70.0009C223.031 70.0009 219.745 70.0482 216.505 69.9536C216.55 47.4897 216.505 24.9785 216.505 2.46735Z" fill="#38B137"/>
<path d="M88.3087 25.8771C94.3328 24.6948 100.859 26.0189 105.833 29.755C110.352 33.0655 113.501 38.2677 114.459 43.9428C115.691 50.5164 114.14 57.7049 110.032 62.907C105.605 68.724 98.3489 71.8453 91.2751 71.3724C84.7946 70.994 78.4966 67.6363 74.663 62.1503C70.3274 56.0969 69.2778 47.7735 71.6509 40.6796C74.0241 33.0655 80.7328 27.2485 88.3087 25.8771ZM89.6778 34.8626C87.2134 35.5247 84.9315 36.9908 83.2885 39.0717C78.8617 44.5576 79.1355 53.4958 84.0187 58.6034C86.8026 61.5355 91.0013 62.907 94.8805 62.1031C98.4858 61.441 101.635 58.9345 103.369 55.624C106.381 49.9962 105.514 42.2402 100.905 37.842C97.9382 35.0045 93.6026 33.8222 89.6778 34.8626Z" fill="#FA3913"/>
<path d="M136.685 25.8771C143.576 24.5056 151.106 26.4919 156.263 31.5049C164.66 39.3081 165.573 53.9215 158.408 62.907C154.072 68.5821 147.044 71.7034 140.107 71.3724C133.49 71.1832 126.964 67.7781 123.039 62.1503C118.612 55.955 117.654 47.4424 120.164 40.2067C122.674 32.8291 129.246 27.2013 136.685 25.8771ZM138.054 34.8626C135.589 35.5247 133.307 36.9908 131.664 39.0244C127.283 44.4157 127.466 53.2121 132.166 58.367C134.95 61.441 139.286 62.9543 143.302 62.1031C146.862 61.3937 150.056 58.9345 151.791 55.624C154.757 49.9489 153.89 42.193 149.235 37.7948C146.268 34.9572 141.933 33.8222 138.054 34.8626Z" fill="#FCBD06"/>
<path d="M177.713 28.62C182.961 25.215 189.944 24.2691 195.603 27.2013C197.383 28.0052 198.843 29.3767 200.258 30.7482C200.303 29.4713 200.258 28.1471 200.303 26.8229C203.361 26.8702 206.419 26.8229 209.522 26.8702V68.5821C209.477 74.872 207.925 81.5402 203.544 86.1276C198.752 91.1879 191.404 92.7485 184.787 91.7081C177.713 90.6204 171.552 85.2763 168.813 78.5135C171.552 77.1421 174.427 76.0543 177.256 74.7774C178.854 78.6554 182.094 81.9659 186.156 82.7226C190.217 83.4792 194.918 82.4388 197.565 78.9392C200.395 75.3449 200.395 70.4265 200.258 66.0283C198.158 68.1565 195.74 70.0482 192.819 70.7576C186.475 72.602 179.493 70.3319 174.609 65.8865C169.681 61.441 166.76 54.5836 167.034 47.7735C167.17 40.0648 171.369 32.6399 177.713 28.62ZM187.16 34.6735C184.376 35.1464 181.775 36.7543 179.995 38.9771C175.705 44.2738 175.705 52.7392 180.04 57.9413C182.505 61.0153 186.475 62.7179 190.309 62.2922C193.914 61.9139 197.246 59.5493 199.026 56.2861C202.038 50.7529 201.536 43.2334 197.474 38.4096C194.964 35.4301 190.948 33.9641 187.16 34.6735Z" fill="#3780FF"/>
<path d="M238 31.032C243.477 25.7352 251.92 23.9381 258.948 26.7284C265.611 29.3294 269.855 35.9031 272 42.6659C262.097 46.9222 252.239 51.1312 242.336 55.3876C243.705 58.0832 245.804 60.5424 248.634 61.5356C252.604 63.0016 257.35 62.4814 260.682 59.7385C262.005 58.698 263.055 57.3265 264.059 56.0024C266.569 57.7522 269.079 59.4547 271.589 61.2045C268.03 66.7377 262.051 70.6157 255.616 71.2305C248.497 72.1291 240.921 69.2915 236.311 63.5218C228.736 54.4417 229.466 39.2135 238 31.032ZM242.883 39.7811C241.332 42.0984 240.693 44.9359 240.738 47.7262C247.356 44.8886 253.973 42.0511 260.591 39.1663C259.495 36.5179 256.848 34.9099 254.156 34.4843C249.82 33.6803 245.302 36.0922 242.883 39.7811Z" fill="#FA3913"/>
</g>
<defs>
<clipPath id="clip0_12_55">
<rect width="272" height="92" fill="white"/>
</clipPath>
</defs>
</svg>
