<svg width="24" height="15" viewBox="0 0 24 15" fill="none" xmlns="http://www.w3.org/2000/svg">
<g clip-path="url(#clip0_15_36)">
<path d="M6.37488 11.4008H17.6251H6.37488Z" fill="#6184AB"/>
<path d="M6.37488 11.4008H17.6251" stroke="#6184AB" stroke-width="1.80001" stroke-miterlimit="5" stroke-linecap="round" stroke-linejoin="round"/>
<path d="M4.2002 5.40032C4.86305 5.40032 5.4004 4.86297 5.4004 4.20012C5.4004 3.53727 4.86305 2.99992 4.2002 2.99992C3.53735 2.99992 3 3.53727 3 4.20012C3 4.86297 3.53735 5.40032 4.2002 5.40032Z" fill="#6184AB"/>
<path d="M8.1001 5.40032C8.76295 5.40032 9.3003 4.86297 9.3003 4.20012C9.3003 3.53727 8.76295 2.99992 8.1001 2.99992C7.43725 2.99992 6.8999 3.53727 6.8999 4.20012C6.8999 4.86297 7.43725 5.40032 8.1001 5.40032Z" fill="#6184AB"/>
<path d="M12 5.40032C12.6629 5.40032 13.2002 4.86297 13.2002 4.20012C13.2002 3.53727 12.6629 2.99992 12 2.99992C11.3372 2.99992 10.7998 3.53727 10.7998 4.20012C10.7998 4.86297 11.3372 5.40032 12 5.40032Z" fill="#6184AB"/>
<path d="M15.8999 5.40032C16.5628 5.40032 17.1001 4.86297 17.1001 4.20012C17.1001 3.53727 16.5628 2.99992 15.8999 2.99992C15.2371 2.99992 14.6997 3.53727 14.6997 4.20012C14.6997 4.86297 15.2371 5.40032 15.8999 5.40032Z" fill="#6184AB"/>
<path d="M19.7999 5.40032C20.4628 5.40032 21.0001 4.86297 21.0001 4.20012C21.0001 3.53727 20.4628 2.99992 19.7999 2.99992C19.1371 2.99992 18.5997 3.53727 18.5997 4.20012C18.5997 4.86297 19.1371 5.40032 19.7999 5.40032Z" fill="#6184AB"/>
<path d="M4.2002 9.30027C4.86305 9.30027 5.4004 8.76292 5.4004 8.10007C5.4004 7.43722 4.86305 6.89987 4.2002 6.89987C3.53735 6.89987 3 7.43722 3 8.10007C3 8.76292 3.53735 9.30027 4.2002 9.30027Z" fill="#6184AB"/>
<path d="M8.1001 9.30027C8.76295 9.30027 9.3003 8.76292 9.3003 8.10007C9.3003 7.43722 8.76295 6.89987 8.1001 6.89987C7.43725 6.89987 6.8999 7.43722 6.8999 8.10007C6.8999 8.76292 7.43725 9.30027 8.1001 9.30027Z" fill="#6184AB"/>
<path d="M12 9.30027C12.6629 9.30027 13.2002 8.76292 13.2002 8.10007C13.2002 7.43722 12.6629 6.89987 12 6.89987C11.3372 6.89987 10.7998 7.43722 10.7998 8.10007C10.7998 8.76292 11.3372 9.30027 12 9.30027Z" fill="#6184AB"/>
<path d="M15.8999 9.30027C16.5628 9.30027 17.1001 8.76292 17.1001 8.10007C17.1001 7.43722 16.5628 6.89987 15.8999 6.89987C15.2371 6.89987 14.6997 7.43722 14.6997 8.10007C14.6997 8.76292 15.2371 9.30027 15.8999 9.30027Z" fill="#6184AB"/>
<path d="M19.7999 9.30027C20.4628 9.30027 21.0001 8.76292 21.0001 8.10007C21.0001 7.43722 20.4628 6.89987 19.7999 6.89987C19.1371 6.89987 18.5997 7.43722 18.5997 8.10007C18.5997 8.76292 19.1371 9.30027 19.7999 9.30027Z" fill="#6184AB"/>
<path d="M22.2678 0.900009H1.73228C1.27264 0.900009 0.900024 1.2546 0.900024 1.69201V13.3079C0.900024 13.7453 1.27264 14.0999 1.73228 14.0999H22.2678C22.7274 14.0999 23.1 13.7453 23.1 13.3079V1.69201C23.1 1.2546 22.7274 0.900009 22.2678 0.900009Z" stroke="#6184AB" stroke-width="1.80001" stroke-miterlimit="5" stroke-linecap="round" stroke-linejoin="round"/>
</g>
<defs>
<clipPath id="clip0_15_36">
<rect width="24" height="14.9999" fill="white"/>
</clipPath>
</defs>
</svg>
